HIERARCHY
ROOT Hips
{
	OFFSET 0.000000 0.000000 0.000000
	CHANNELS 6 Xposition Yposition Zposition Zrotation Yrotation Xrotation 
	JOINT LHipJoint
	{
		OFFSET 0.000000 0.000000 0.000000
		CHANNELS 3 Zrotation Yrotation Xrotation
		JOINT LeftUpLeg
		{
			OFFSET 1.363060 -1.794630 0.839290
			CHANNELS 3 Zrotation Yrotation Xrotation
			JOINT LeftLeg
			{
				OFFSET 2.448110 -6.726130 0.000000
				CHANNELS 3 Zrotation Yrotation Xrotation
				JOINT LeftFoot
				{
					OFFSET 2.562200 -7.039590 0.000000
					CHANNELS 3 Zrotation Yrotation Xrotation
					JOINT LeftToeBase
					{
						OFFSET 0.157640 -0.433110 2.322550
						CHANNELS 3 Zrotation Yrotation Xrotation
						End Site
						{
							OFFSET 0.000000 0.000000 0.000000
						}
					}
				}
			}
		}
	}
	JOINT RHipJoint
	{
		OFFSET 0.000000 0.000000 0.000000
		CHANNELS 3 Zrotation Yrotation Xrotation
		JOINT RightUpLeg
		{
			OFFSET -1.305520 -1.794630 0.839290
			CHANNELS 3 Zrotation Yrotation Xrotation
			JOINT RightLeg
			{
				OFFSET -2.542530 -6.985550 0.000000
				CHANNELS 3 Zrotation Yrotation Xrotation
				JOINT RightFoot
				{
					OFFSET -2.568260 -7.056230 0.000000
					CHANNELS 3 Zrotation Yrotation Xrotation
					JOINT RightToeBase
					{
						OFFSET -0.164730 -0.452590 2.363150
						CHANNELS 3 Zrotation Yrotation Xrotation
						End Site
						{
							OFFSET 0.000000 0.000000 0.000000
						}
					}
				}
			}
		}
	}
	JOINT LowerBack
	{
		OFFSET 0.000000 0.000000 0.000000
		CHANNELS 3 Zrotation Yrotation Xrotation
		JOINT Spine
		{
			OFFSET 0.028270 2.035590 -0.193380
			CHANNELS 3 Zrotation Yrotation Xrotation
			JOINT Spine1
			{
				OFFSET 0.056720 2.048850 -0.042750
				CHANNELS 3 Zrotation Yrotation Xrotation
				JOINT Neck
				{
					OFFSET 0.000000 0.000000 0.000000
					CHANNELS 3 Zrotation Yrotation Xrotation
					JOINT Neck1
					{
						OFFSET -0.054170 1.746240 0.172020
						CHANNELS 3 Zrotation Yrotation Xrotation
						JOINT Head
						{
							OFFSET 0.104070 1.761360 -0.123970
							CHANNELS 3 Zrotation Yrotation Xrotation
							End Site
							{
								OFFSET 0.000000 0.000000 0.000000
							}
						}
					}
				}
				JOINT LeftShoulder
				{
					OFFSET 0.000000 0.000000 0.000000
					CHANNELS 3 Zrotation Yrotation Xrotation
					JOINT LeftArm
					{
						OFFSET 3.362410 1.200890 -0.311210
						CHANNELS 3 Zrotation Yrotation Xrotation
						JOINT LeftForeArm
						{
							OFFSET 4.983000 -0.000000 -0.000000
							CHANNELS 3 Zrotation Yrotation Xrotation
							JOINT LeftHand
							{
								OFFSET 3.483560 -0.000000 -0.000000
								CHANNELS 3 Zrotation Yrotation Xrotation
								JOINT LeftFingerBase
								{
									OFFSET 0.000000 0.000000 0.000000
									CHANNELS 3 Zrotation Yrotation Xrotation
									JOINT LeftHandIndex1
									{
										OFFSET 0.715260 -0.000000 -0.000000
										CHANNELS 3 Zrotation Yrotation Xrotation
										End Site
										{
											OFFSET 0.000000 0.000000 0.000000
										}
									}
								}
								JOINT LThumb
								{
									OFFSET 0.000000 0.000000 0.000000
									CHANNELS 3 Zrotation Yrotation Xrotation
									End Site
									{
										OFFSET 0.000000 0.000000 0.000000
									}
								}
							}
						}
					}
				}
				JOINT RightShoulder
				{
					OFFSET 0.000000 0.000000 0.000000
					CHANNELS 3 Zrotation Yrotation Xrotation
					JOINT RightArm
					{
						OFFSET -3.136600 1.374050 -0.404650
						CHANNELS 3 Zrotation Yrotation Xrotation
						JOINT RightForeArm
						{
							OFFSET -5.241900 -0.000000 -0.000000
							CHANNELS 3 Zrotation Yrotation Xrotation
							JOINT RightHand
							{
								OFFSET -3.444170 -0.000000 -0.000000
								CHANNELS 3 Zrotation Yrotation Xrotation
								JOINT RightFingerBase
								{
									OFFSET 0.000000 0.000000 0.000000
									CHANNELS 3 Zrotation Yrotation Xrotation
									JOINT RightHandIndex1
									{
										OFFSET -0.622530 -0.000000 -0.000000
										CHANNELS 3 Zrotation Yrotation Xrotation
										End Site
										{
											OFFSET 0.000000 0.000000 0.000000
										}
									}
								}
								JOINT RThumb
								{
									OFFSET 0.000000 0.000000 0.000000
									CHANNELS 3 Zrotation Yrotation Xrotation
									End Site
									{
										OFFSET 0.000000 0.000000 0.000000
									}
								}
							}
						}
					}
				}
			}
		}
	}
}
MOTION
Frames: 12
Frame Time: 0.008333
5.131681 18.498383 0.989679 54.717742 -84.976928 -28.256781 -11.181971 4.313801 3.843689 -4.105256 0.638112 -16.814492 -0.237223 0.433018 15.724422 1.701035 3.536982 38.892581 1.811100 -0.000000 -73.806300 12.110367 -3.090758 -0.812282 2.482086 -20.485039 -15.167967 1.353507 -1.009498 14.301849 -0.646001 5.412614 37.495482 4.005100 0.000000 -86.088901 -1.664041 -1.823697 -3.755920 -0.754135 -1.782460 -3.516738 -4.620761 -1.897067 0.698987 5.328653 -6.123369 -4.565146 -1.996966 -0.186818 0.799192 0.000000 0.000000 0.000000 7.196786 0.725971 0.780365 -63.992006 -10.296427 -8.892162 -0.823167 -52.409334 -0.129930 30.454171 -2.012637 -0.629062 -0.301138 0.280990 -0.000000 0.000000 0.000000 0.000000 0.000000 0.000000 0.000000 2.974800 -4.703397 0.812689 71.290440 19.280219 -17.949793 0.431689 36.402103 -0.097523 -28.673928 12.596330 -3.333438 0.206265 -0.305781 0.000000 0.000000 0.000000 0.000000 0.000000 0.000000 0.000000 
4.912019 18.762745 0.973008 54.470331 -85.178558 -28.332307 -11.199228 4.336128 4.070235 -3.802570 0.069256 -16.399074 -0.121138 0.384409 15.172927 1.827184 4.280429 40.376429 2.379700 0.000000 -70.066500 12.093525 -3.133151 -0.738295 2.450719 -20.741321 -15.132961 1.329953 -0.983821 14.019460 -0.748874 5.336093 39.211955 4.095900 -0.000000 -83.143300 -1.623112 -1.774088 -4.139696 -0.743818 -1.739230 -3.568881 -4.609878 -1.850736 0.778241 5.365711 -6.381768 -4.431394 -1.973516 -0.187836 0.845303 0.000000 0.000000 0.000000 7.366553 1.002943 0.648370 -63.185015 -10.361717 -9.417575 -0.773154 -53.702299 -0.133250 30.541752 -2.386174 -0.736883 -0.306905 0.291500 -0.000000 0.000000 0.000000 0.000000 0.000000 0.000000 0.000000 2.837499 -4.955700 0.644377 70.526259 19.524607 -17.783661 0.397645 38.318653 -0.100011 -28.445249 12.658551 -3.324586 0.208192 -0.315053 0.000000 0.000000 0.000000 0.000000 0.000000 0.000000 0.000000 
4.698771 19.016066 0.956259 55.010065 -85.392951 -29.019688 -11.197290 4.326935 4.258207 -3.681702 -0.378058 -16.533585 -0.029084 0.351004 15.316570 1.907771 5.239736 40.719202 3.084400 -0.000000 -66.762100 12.061910 -3.135269 -0.607027 2.485244 -20.657545 -15.599293 1.288342 -0.985920 14.374659 -0.815955 4.712214 39.634946 3.691101 0.000000 -80.936900 -1.594165 -1.729178 -4.541291 -0.739049 -1.700930 -3.626422 -4.609884 -1.809695 0.844824 5.429764 -6.621236 -4.386820 -1.958156 -0.188039 0.865470 0.000000 0.000000 0.000000 7.441077 1.336394 0.563766 -62.231729 -10.494592 -10.096689 -0.719462 -55.001764 -0.137459 30.644337 -2.660230 -0.818415 -0.312145 0.302563 0.000000 0.000000 0.000000 0.000000 0.000000 0.000000 0.000000 2.782919 -5.165580 0.501010 69.620271 19.847954 -17.603875 0.353224 40.274519 -0.103016 -28.233880 12.824852 -3.344735 0.209638 -0.326135 0.000000 0.000000 0.000000 0.000000 0.000000 0.000000 0.000000 
4.493267 19.257166 0.939095 56.419522 -85.621904 -30.429552 -11.178919 4.285180 4.391919 -3.727248 -0.667195 -17.125475 0.038403 0.331236 16.015027 1.953934 6.344920 40.152013 3.854500 0.000000 -64.708900 12.020640 -3.099118 -0.429858 2.563343 -20.227716 -16.457553 1.226200 -1.012066 15.230361 -0.854745 3.623112 38.951325 2.880900 0.000000 -79.736500 -1.578331 -1.688427 -4.924835 -0.739303 -1.666386 -3.683447 -4.617031 -1.772420 0.894269 5.510604 -6.832316 -4.416705 -1.946968 -0.187348 0.863770 0.000000 0.000000 0.000000 7.445788 1.706537 0.521689 -61.149152 -10.673353 -10.931238 -0.661320 -56.339714 -0.142713 30.772310 -2.819877 -0.869658 -0.317393 0.314179 0.000000 0.000000 0.000000 0.000000 0.000000 0.000000 0.000000 2.781151 -5.324860 0.382810 68.594328 20.240125 -17.430865 0.298068 42.274514 -0.106755 -28.056818 13.029214 -3.378584 0.210935 -0.338906 -0.000000 0.000000 0.000000 0.000000 0.000000 0.000000 0.000000 
4.296453 19.484764 0.920958 58.710623 -85.857076 -32.603974 -11.147287 4.213158 4.452671 -3.926663 -0.716171 -18.123350 0.072740 0.328377 17.187995 1.964875 7.393338 38.810987 4.520300 0.000000 -63.247000 11.975440 -3.026630 -0.219041 2.659847 -19.500407 -17.625990 1.150253 -1.058135 16.485331 -0.869728 2.268134 37.323235 1.856300 -0.000001 -79.253300 -1.578833 -1.653163 -5.256229 -0.744280 -1.636035 -3.733607 -4.626617 -1.739069 0.926169 5.598548 -7.017936 -4.507121 -1.935553 -0.185643 0.843916 0.000000 0.000000 0.000000 7.415551 2.103277 0.514389 -59.963606 -10.890394 -11.911011 -0.598704 -57.725004 -0.149151 30.939830 -2.865834 -0.890913 -0.323198 0.326435 0.000000 0.000000 0.000000 0.000000 0.000000 0.000000 0.000000 2.801479 -5.440808 0.287543 67.476245 20.694892 -17.286887 0.232387 44.316643 -0.111425 -27.930829 13.211170 -3.412938 0.212443 -0.353205 0.000000 0.000000 0.000000 0.000000 0.000000 0.000000 0.000000 
4.108988 19.698517 0.901687 61.755792 -86.086452 -35.447872 -11.104863 4.112093 4.432642 -4.254653 -0.520369 -19.428687 0.073060 0.343379 18.685196 1.948713 8.286139 36.928165 5.006400 -0.000001 -62.487200 11.929877 -2.919484 0.006117 2.750636 -18.549459 -19.007592 1.071502 -1.118671 18.014215 -0.867314 0.862327 34.957340 0.819000 -0.000000 -79.180500 -1.592231 -1.625279 -5.501855 -0.752106 -1.611351 -3.771287 -4.634016 -1.710962 0.937123 5.682401 -7.175384 -4.638428 -1.920725 -0.182962 0.811043 0.000000 0.000000 0.000000 7.380765 2.500329 0.534036 -58.704641 -11.119160 -13.034123 -0.532173 -59.165670 -0.156811 31.159328 -2.809695 -0.885478 -0.329928 0.339348 0.000000 0.000000 0.000000 0.000000 0.000000 0.000000 0.000000 2.813986 -5.516787 0.213007 66.290953 21.193040 -17.205771 0.156792 46.399873 -0.117183 -27.867040 13.321253 -3.436998 0.214469 -0.368869 0.000000 0.000000 0.000000 0.000000 0.000000 0.000000 0.000000 
3.931179 19.898251 0.881194 65.293665 -86.295699 -38.734545 -11.054312 3.984669 4.326984 -4.683572 -0.088102 -20.949462 0.039039 0.378503 20.374850 1.909842 8.936922 34.699956 5.262500 -0.000001 -62.134800 11.886096 -2.780332 0.224699 2.818350 -17.469675 -20.510360 1.001706 -1.188488 19.686513 -0.854300 -0.415380 32.095164 -0.074200 -0.000000 -79.361600 -1.615112 -1.607506 -5.630714 -0.760968 -1.594643 -3.790828 -4.635451 -1.690330 0.925569 5.753157 -7.307600 -4.792459 -1.900378 -0.179394 0.769832 0.000000 0.000000 0.000000 7.367431 2.875857 0.572520 -57.402901 -11.340842 -14.292820 -0.463298 -60.654048 -0.165667 31.440482 -2.675101 -0.859554 -0.337792 0.352910 0.000000 0.000000 0.000000 0.000000 0.000000 0.000000 0.000000 2.796474 -5.563494 0.155808 65.060094 21.717506 -17.222237 0.072907 48.515558 -0.124105 -27.869382 13.328654 -3.443866 0.217211 -0.385691 0.000000 0.000000 0.000000 0.000000 0.000000 0.000000 0.000000 
3.762654 20.085082 0.859699 68.947033 -86.473735 -42.113976 -10.998555 3.833903 4.141483 -5.180840 0.527531 -22.589957 -0.024828 0.433336 22.112179 1.855244 9.333658 32.337681 5.308200 0.000001 -62.124000 11.843775 -2.613282 0.417408 2.856454 -16.352054 -22.053358 0.950351 -1.263113 21.370416 -0.836033 -1.453060 28.994274 -0.741700 0.000001 -79.692000 -1.641721 -1.601977 -5.624702 -0.768940 -1.587996 -3.788937 -4.628983 -1.679297 0.890333 5.804452 -7.416491 -4.951349 -1.874509 -0.175184 0.724982 0.000000 0.000000 0.000000 7.389509 3.205868 0.622576 -56.084676 -11.530646 -15.677616 -0.394580 -62.180081 -0.175558 31.787177 -2.489758 -0.820343 -0.346787 0.366950 0.000000 0.000000 0.000000 0.000000 0.000000 0.000000 0.000000 2.738339 -5.590826 0.112287 63.797508 22.245829 -17.368116 -0.016159 50.653976 -0.132139 -27.933809 13.218986 -3.429144 0.220760 -0.403342 0.000000 0.000000 0.000000 0.000000 0.000000 0.000000 0.000000 
3.602392 20.259880 0.837553 72.291656 -86.615742 -45.178175 -10.940730 3.663837 3.889512 -5.715502 1.260319 -24.275708 -0.112469 0.505513 23.775006 1.790639 9.496323 30.019135 5.190500 -0.000000 -62.330100 11.801181 -2.423614 0.569685 2.867663 -15.276419 -23.581002 0.923278 -1.339552 22.959255 -0.813952 -2.198151 25.888579 -1.167000 -0.000000 -80.054900 -1.666663 -1.609861 -5.480954 -0.774682 -1.592704 -3.764832 -4.614329 -1.679243 0.832276 5.833133 -7.506086 -5.100963 -1.844394 -0.170629 0.680327 0.000000 0.000000 0.000000 7.450959 3.472034 0.677956 -54.772143 -11.666833 -17.172824 -0.329092 -63.728954 -0.186217 32.197640 -2.283381 -0.775538 -0.356763 0.381188 0.000000 0.000000 0.000000 0.000000 0.000000 0.000000 0.000000 2.638877 -5.609693 0.078799 62.510866 22.755210 -17.665333 -0.105869 52.802092 -0.141093 -28.050268 12.994282 -3.391735 0.225121 -0.421376 0.000000 0.000000 0.000000 0.000000 0.000000 0.000000 0.000000 
3.448996 20.424219 0.815214 74.933766 -86.722431 -47.538046 -10.883598 3.478656 3.590474 -6.261319 2.039647 -25.959240 -0.217044 0.590663 25.267285 1.721104 9.468914 27.886432 4.969500 0.000001 -62.670900 11.755719 -2.217083 0.674493 2.863577 -14.297590 -25.065635 0.921840 -1.415373 24.373199 -0.787068 -2.652340 22.975414 -1.382900 0.000000 -80.412000 -1.684330 -1.630853 -5.213202 -0.777237 -1.608854 -3.720633 -4.592278 -1.690365 0.753991 5.838216 -7.581663 -5.231615 -1.811904 -0.166023 0.638683 0.000000 0.000000 0.000000 7.548781 3.661743 0.733795 -53.482602 -11.731896 -18.755047 -0.269889 -65.283523 -0.197307 32.663670 -2.081550 -0.731941 -0.367489 0.395282 0.000000 0.000000 0.000000 0.000000 0.000000 0.000000 0.000000 2.503380 -5.629696 0.052281 61.203124 23.223649 -18.122821 -0.190837 54.945350 -0.150676 -28.204064 12.668840 -3.332737 0.230239 -0.439288 0.000000 0.000000 0.000000 0.000000 0.000000 0.000000 0.000000 
3.300782 20.579207 0.793060 76.580852 -86.797734 -48.895433 -10.828781 3.283035 3.267004 -6.800932 2.802609 -27.623787 -0.332965 0.683861 26.532766 1.649207 9.294669 26.015474 4.694000 -0.000000 -62.842900 11.704984 -1.999467 0.732797 2.858323 -13.446600 -26.509489 0.944784 -1.489455 25.577472 -0.751386 -2.837669 20.375229 -1.437200 0.000000 -80.486700 -1.690705 -1.663434 -4.849764 -0.776290 -1.635506 -3.660839 -4.564531 -1.711848 0.660617 5.822203 -7.651385 -5.339411 -1.778976 -0.161596 0.601462 0.000000 0.000000 0.000000 7.676118 3.773100 0.786492 -52.229664 -11.718769 -20.392716 -0.219471 -66.823091 -0.208467 33.173086 -1.903941 -0.694747 -0.378722 0.408886 0.000000 0.000000 0.000000 0.000000 0.000000 0.000000 0.000000 2.342637 -5.660833 0.030290 59.873978 23.634071 -18.733613 -0.265507 57.066804 -0.160511 -28.379415 12.264794 -3.255049 0.236042 -0.456546 0.000000 0.000000 0.000000 0.000000 0.000000 0.000000 0.000000 
3.155911 20.725454 0.771481 77.067148 -86.846081 -49.070062 -10.777148 3.080023 2.942658 -7.321075 3.486329 -29.263243 -0.453476 0.778416 27.525299 1.580704 9.045487 24.476932 4.421301 -0.000000 -63.061900 11.646811 -1.775805 0.752089 2.865398 -12.724693 -27.921351 0.986980 -1.558916 26.538260 -0.708071 -2.823543 18.191585 -1.395100 0.000000 -80.575400 -1.681084 -1.705296 -4.426395 -0.771310 -1.671234 -3.591461 -4.532613 -1.742429 0.557498 5.787908 -7.721080 -5.424174 -1.746959 -0.157487 0.569133 0.000000 0.000000 0.000000 7.824990 3.807942 0.834500 -51.023066 -11.624392 -22.051211 -0.179422 -68.327945 -0.219358 33.710373 -1.761285 -0.667055 -0.390250 0.421692 0.000000 0.000000 0.000000 0.000000 0.000000 0.000000 0.000000 2.165759 -5.708070 0.011880 58.522694 23.970831 -19.480022 -0.325231 59.149096 -0.170213 -28.561326 11.809990 -3.163469 0.242454 -0.472711 0.000000 0.000000 0.000000 0.000000 0.000000 0.000000 0.000000 
